%TF.GenerationSoftware,KiCad,Pcbnew,7.0.7*%
%TF.CreationDate,2023-12-09T23:09:19-05:00*%
%TF.ProjectId,keyboard,6b657962-6f61-4726-942e-6b696361645f,rev?*%
%TF.SameCoordinates,Original*%
%TF.FileFunction,Soldermask,Top*%
%TF.FilePolarity,Negative*%
%FSLAX46Y46*%
G04 Gerber Fmt 4.6, Leading zero omitted, Abs format (unit mm)*
G04 Created by KiCad (PCBNEW 7.0.7) date 2023-12-09 23:09:19*
%MOMM*%
%LPD*%
G01*
G04 APERTURE LIST*
G04 Aperture macros list*
%AMRoundRect*
0 Rectangle with rounded corners*
0 $1 Rounding radius*
0 $2 $3 $4 $5 $6 $7 $8 $9 X,Y pos of 4 corners*
0 Add a 4 corners polygon primitive as box body*
4,1,4,$2,$3,$4,$5,$6,$7,$8,$9,$2,$3,0*
0 Add four circle primitives for the rounded corners*
1,1,$1+$1,$2,$3*
1,1,$1+$1,$4,$5*
1,1,$1+$1,$6,$7*
1,1,$1+$1,$8,$9*
0 Add four rect primitives between the rounded corners*
20,1,$1+$1,$2,$3,$4,$5,0*
20,1,$1+$1,$4,$5,$6,$7,0*
20,1,$1+$1,$6,$7,$8,$9,0*
20,1,$1+$1,$8,$9,$2,$3,0*%
G04 Aperture macros list end*
%ADD10C,0.650000*%
%ADD11C,4.476000*%
%ADD12C,4.063800*%
%ADD13C,1.152002*%
%ADD14C,1.826000*%
%ADD15RoundRect,0.038000X0.850000X-0.850000X0.850000X0.850000X-0.850000X0.850000X-0.850000X-0.850000X0*%
%ADD16O,1.776000X1.776000*%
G04 APERTURE END LIST*
%TO.C,TH2*%
D10*
X1575356Y-90605200D02*
G75*
G03*
X1575356Y-90605200I-325000J0D01*
G01*
%TO.C,TH3*%
X279275006Y-90700000D02*
G75*
G03*
X279275006Y-90700000I-325000J0D01*
G01*
%TO.C,TH1*%
X1574956Y-3500000D02*
G75*
G03*
X1574956Y-3500000I-325000J0D01*
G01*
%TD*%
D11*
%TO.C,H3*%
X279231600Y-21622400D03*
%TD*%
D12*
%TO.C,S4*%
X244874956Y-74449800D03*
X268687456Y-74449800D03*
%TD*%
D11*
%TO.C,H7*%
X139731600Y-90521400D03*
%TD*%
%TO.C,H5*%
X196931600Y-37122400D03*
%TD*%
D12*
%TO.C,S2*%
X249637456Y-55399800D03*
X273449956Y-55399800D03*
%TD*%
D11*
%TO.C,H1*%
X1231600Y-19122400D03*
%TD*%
D12*
%TO.C,S5*%
X178199956Y-76989800D03*
X78187456Y-76989800D03*
%TD*%
D11*
%TO.C,H2*%
X130231600Y-18122400D03*
%TD*%
D13*
%TO.C,TH2*%
X1250356Y-90605200D03*
%TD*%
D11*
%TO.C,H4*%
X63531600Y-37122400D03*
%TD*%
D12*
%TO.C,S1*%
X252018706Y-17299800D03*
X275831206Y-17299800D03*
%TD*%
D11*
%TO.C,H6*%
X20731600Y-85522400D03*
%TD*%
D13*
%TO.C,TH3*%
X278950006Y-90700000D03*
%TD*%
D12*
%TO.C,S3*%
X6749956Y-74449800D03*
X30562456Y-74449800D03*
%TD*%
D11*
%TO.C,H8*%
X258731600Y-85122400D03*
%TD*%
D13*
%TO.C,TH1*%
X1249956Y-3500000D03*
%TD*%
D14*
%TO.C,HALL60*%
X252336206Y-85244800D03*
X242176206Y-85244800D03*
%TD*%
%TO.C,HALL47*%
X130892456Y-66194800D03*
X120732456Y-66194800D03*
%TD*%
%TO.C,HALL44*%
X73742456Y-66194800D03*
X63582456Y-66194800D03*
%TD*%
%TO.C,HALL39*%
X216617456Y-47144800D03*
X206457456Y-47144800D03*
%TD*%
%TO.C,HALL6*%
X107079956Y-9044800D03*
X96919956Y-9044800D03*
%TD*%
%TO.C,HALL4*%
X68979956Y-9044800D03*
X58819956Y-9044800D03*
%TD*%
%TO.C,HALL36*%
X159467456Y-47144800D03*
X149307456Y-47144800D03*
%TD*%
%TO.C,HALL13*%
X240429956Y-9044800D03*
X230269956Y-9044800D03*
%TD*%
%TO.C,HALL22*%
X154704956Y-28094800D03*
X144544956Y-28094800D03*
%TD*%
%TO.C,HALL33*%
X102317456Y-47144800D03*
X92157456Y-47144800D03*
%TD*%
%TO.C,HALL15*%
X16592456Y-28094800D03*
X6432456Y-28094800D03*
%TD*%
%TO.C,HALL12*%
X221379956Y-9044800D03*
X211219956Y-9044800D03*
%TD*%
%TO.C,HALL20*%
X116604956Y-28094800D03*
X106444956Y-28094800D03*
%TD*%
%TO.C,HALL2*%
X30879956Y-9044800D03*
X20719956Y-9044800D03*
%TD*%
%TO.C,HALL34*%
X121367456Y-47144800D03*
X111207456Y-47144800D03*
%TD*%
%TO.C,HALL43*%
X54692456Y-66194800D03*
X44532456Y-66194800D03*
%TD*%
%TO.C,HALL58*%
X204711206Y-85244800D03*
X194551206Y-85244800D03*
%TD*%
%TO.C,HALL59*%
X228523706Y-85244800D03*
X218363706Y-85244800D03*
%TD*%
%TO.C,HALL32*%
X83267456Y-47144800D03*
X73107456Y-47144800D03*
%TD*%
%TO.C,HALL7*%
X126129956Y-9044800D03*
X115969956Y-9044800D03*
%TD*%
%TO.C,HALL55*%
X38023706Y-85244800D03*
X27863706Y-85244800D03*
%TD*%
%TO.C,HALL9*%
X164229956Y-9044800D03*
X154069956Y-9044800D03*
%TD*%
%TO.C,HALL41*%
X266623706Y-47144800D03*
X256463706Y-47144800D03*
%TD*%
%TO.C,HALL45*%
X92792456Y-66194800D03*
X82632456Y-66194800D03*
%TD*%
%TO.C,HALL11*%
X202329956Y-9044800D03*
X192169956Y-9044800D03*
%TD*%
%TO.C,HALL28*%
X273767456Y-28094800D03*
X263607456Y-28094800D03*
%TD*%
%TO.C,HALL42*%
X23736206Y-66194800D03*
X13576206Y-66194800D03*
%TD*%
D15*
%TO.C,SWD1*%
X134644956Y-74369800D03*
D16*
X134644956Y-76909800D03*
X132104956Y-74369800D03*
X132104956Y-76909800D03*
X129564956Y-74369800D03*
X129564956Y-76909800D03*
%TD*%
D14*
%TO.C,HALL19*%
X97554956Y-28094800D03*
X87394956Y-28094800D03*
%TD*%
%TO.C,HALL38*%
X197567456Y-47144800D03*
X187407456Y-47144800D03*
%TD*%
%TO.C,HALL54*%
X14211206Y-85244800D03*
X4051206Y-85244800D03*
%TD*%
%TO.C,HALL52*%
X226142456Y-66194800D03*
X215982456Y-66194800D03*
%TD*%
%TO.C,HALL3*%
X49929956Y-9044800D03*
X39769956Y-9044800D03*
%TD*%
%TO.C,HALL53*%
X261861206Y-66194800D03*
X251701206Y-66194800D03*
%TD*%
%TO.C,HALL23*%
X173754956Y-28094800D03*
X163594956Y-28094800D03*
%TD*%
%TO.C,HALL40*%
X235667456Y-47144800D03*
X225507456Y-47144800D03*
%TD*%
%TO.C,HALL49*%
X168992456Y-66194800D03*
X158832456Y-66194800D03*
%TD*%
%TO.C,HALL1*%
X11829956Y-9044800D03*
X1669956Y-9044800D03*
%TD*%
%TO.C,HALL61*%
X276148706Y-85244800D03*
X265988706Y-85244800D03*
%TD*%
%TO.C,HALL8*%
X145179956Y-9044800D03*
X135019956Y-9044800D03*
%TD*%
%TO.C,HALL5*%
X88029956Y-9044800D03*
X77869956Y-9044800D03*
%TD*%
%TO.C,HALL51*%
X207092456Y-66194800D03*
X196932456Y-66194800D03*
%TD*%
%TO.C,HALL16*%
X40404956Y-28094800D03*
X30244956Y-28094800D03*
%TD*%
%TO.C,HALL24*%
X192804956Y-28094800D03*
X182644956Y-28094800D03*
%TD*%
%TO.C,HALL10*%
X183279956Y-9044800D03*
X173119956Y-9044800D03*
%TD*%
%TO.C,HALL48*%
X149942456Y-66194800D03*
X139782456Y-66194800D03*
%TD*%
%TO.C,HALL18*%
X78504956Y-28094800D03*
X68344956Y-28094800D03*
%TD*%
%TO.C,HALL25*%
X211854956Y-28094800D03*
X201694956Y-28094800D03*
%TD*%
%TO.C,HALL31*%
X64217456Y-47144800D03*
X54057456Y-47144800D03*
%TD*%
%TO.C,HALL46*%
X111842456Y-66194800D03*
X101682456Y-66194800D03*
%TD*%
%TO.C,HALL56*%
X61836206Y-85244800D03*
X51676206Y-85244800D03*
%TD*%
%TO.C,HALL17*%
X59454956Y-28094800D03*
X49294956Y-28094800D03*
%TD*%
%TO.C,HALL14*%
X269004956Y-9044800D03*
X258844956Y-9044800D03*
%TD*%
%TO.C,HALL50*%
X188042456Y-66194800D03*
X177882456Y-66194800D03*
%TD*%
%TO.C,HALL29*%
X18973706Y-47144800D03*
X8813706Y-47144800D03*
%TD*%
%TO.C,HALL57*%
X133273706Y-85244800D03*
X123113706Y-85244800D03*
%TD*%
%TO.C,HALL37*%
X178517456Y-47144800D03*
X168357456Y-47144800D03*
%TD*%
%TO.C,HALL35*%
X140417456Y-47144800D03*
X130257456Y-47144800D03*
%TD*%
%TO.C,HALL26*%
X230904956Y-28094800D03*
X220744956Y-28094800D03*
%TD*%
%TO.C,HALL21*%
X135654956Y-28094800D03*
X125494956Y-28094800D03*
%TD*%
%TO.C,HALL27*%
X249954956Y-28094800D03*
X239794956Y-28094800D03*
%TD*%
%TO.C,HALL30*%
X45167456Y-47144800D03*
X35007456Y-47144800D03*
%TD*%
M02*
