%TF.GenerationSoftware,KiCad,Pcbnew,7.0.7*%
%TF.CreationDate,2023-12-09T23:09:19-05:00*%
%TF.ProjectId,keyboard,6b657962-6f61-4726-942e-6b696361645f,rev?*%
%TF.SameCoordinates,Original*%
%TF.FileFunction,Paste,Bot*%
%TF.FilePolarity,Positive*%
%FSLAX46Y46*%
G04 Gerber Fmt 4.6, Leading zero omitted, Abs format (unit mm)*
G04 Created by KiCad (PCBNEW 7.0.7) date 2023-12-09 23:09:19*
%MOMM*%
%LPD*%
G01*
G04 APERTURE LIST*
G04 Aperture macros list*
%AMRoundRect*
0 Rectangle with rounded corners*
0 $1 Rounding radius*
0 $2 $3 $4 $5 $6 $7 $8 $9 X,Y pos of 4 corners*
0 Add a 4 corners polygon primitive as box body*
4,1,4,$2,$3,$4,$5,$6,$7,$8,$9,$2,$3,0*
0 Add four circle primitives for the rounded corners*
1,1,$1+$1,$2,$3*
1,1,$1+$1,$4,$5*
1,1,$1+$1,$6,$7*
1,1,$1+$1,$8,$9*
0 Add four rect primitives between the rounded corners*
20,1,$1+$1,$2,$3,$4,$5,0*
20,1,$1+$1,$4,$5,$6,$7,0*
20,1,$1+$1,$6,$7,$8,$9,0*
20,1,$1+$1,$8,$9,$2,$3,0*%
G04 Aperture macros list end*
%ADD10R,2.750000X1.000000*%
%ADD11RoundRect,0.150000X-0.150000X0.587500X-0.150000X-0.587500X0.150000X-0.587500X0.150000X0.587500X0*%
%ADD12RoundRect,0.140000X-0.170000X0.140000X-0.170000X-0.140000X0.170000X-0.140000X0.170000X0.140000X0*%
%ADD13RoundRect,0.135000X-0.185000X0.135000X-0.185000X-0.135000X0.185000X-0.135000X0.185000X0.135000X0*%
%ADD14RoundRect,0.100000X-0.100000X0.637500X-0.100000X-0.637500X0.100000X-0.637500X0.100000X0.637500X0*%
%ADD15RoundRect,0.250000X0.312500X0.625000X-0.312500X0.625000X-0.312500X-0.625000X0.312500X-0.625000X0*%
%ADD16R,2.000000X1.500000*%
%ADD17R,2.000000X3.800000*%
%ADD18RoundRect,0.140000X0.170000X-0.140000X0.170000X0.140000X-0.170000X0.140000X-0.170000X-0.140000X0*%
%ADD19RoundRect,0.218750X0.218750X0.381250X-0.218750X0.381250X-0.218750X-0.381250X0.218750X-0.381250X0*%
%ADD20RoundRect,0.140000X0.140000X0.170000X-0.140000X0.170000X-0.140000X-0.170000X0.140000X-0.170000X0*%
%ADD21RoundRect,0.250000X-0.475000X0.250000X-0.475000X-0.250000X0.475000X-0.250000X0.475000X0.250000X0*%
%ADD22RoundRect,0.250000X-0.650000X0.325000X-0.650000X-0.325000X0.650000X-0.325000X0.650000X0.325000X0*%
%ADD23R,1.400000X1.200000*%
%ADD24R,0.600000X0.700000*%
%ADD25R,0.900000X0.700000*%
%ADD26RoundRect,0.140000X-0.140000X-0.170000X0.140000X-0.170000X0.140000X0.170000X-0.140000X0.170000X0*%
%ADD27RoundRect,0.250000X-0.625000X0.312500X-0.625000X-0.312500X0.625000X-0.312500X0.625000X0.312500X0*%
%ADD28RoundRect,0.135000X0.135000X0.185000X-0.135000X0.185000X-0.135000X-0.185000X0.135000X-0.185000X0*%
%ADD29RoundRect,0.250000X0.325000X0.650000X-0.325000X0.650000X-0.325000X-0.650000X0.325000X-0.650000X0*%
%ADD30RoundRect,0.075000X-0.662500X-0.075000X0.662500X-0.075000X0.662500X0.075000X-0.662500X0.075000X0*%
%ADD31RoundRect,0.075000X-0.075000X-0.662500X0.075000X-0.662500X0.075000X0.662500X-0.075000X0.662500X0*%
%ADD32RoundRect,0.200000X-0.275000X0.200000X-0.275000X-0.200000X0.275000X-0.200000X0.275000X0.200000X0*%
%ADD33RoundRect,0.250000X0.250000X0.475000X-0.250000X0.475000X-0.250000X-0.475000X0.250000X-0.475000X0*%
%ADD34RoundRect,0.218750X0.256250X-0.218750X0.256250X0.218750X-0.256250X0.218750X-0.256250X-0.218750X0*%
%ADD35RoundRect,0.150000X-0.625000X0.150000X-0.625000X-0.150000X0.625000X-0.150000X0.625000X0.150000X0*%
%ADD36RoundRect,0.250000X-0.650000X0.350000X-0.650000X-0.350000X0.650000X-0.350000X0.650000X0.350000X0*%
G04 APERTURE END LIST*
D10*
%TO.C,SW1*%
X92172456Y-82109800D03*
X97922456Y-82109800D03*
X92172456Y-86109800D03*
X97922456Y-86109800D03*
%TD*%
D11*
%TO.C,HALL60*%
X246306206Y-84327300D03*
X248206206Y-84327300D03*
X247256206Y-86202300D03*
%TD*%
D12*
%TO.C,C51*%
X38761256Y-26228500D03*
X38761256Y-27188500D03*
%TD*%
D13*
%TO.C,R11*%
X161516256Y-7169500D03*
X161516256Y-8189500D03*
%TD*%
D12*
%TO.C,C50*%
X32992256Y-26983500D03*
X32992256Y-27943500D03*
%TD*%
D14*
%TO.C,U6*%
X140893756Y-33887300D03*
X141543756Y-33887300D03*
X142193756Y-33887300D03*
X142843756Y-33887300D03*
X143493756Y-33887300D03*
X144143756Y-33887300D03*
X144793756Y-33887300D03*
X145443756Y-33887300D03*
X146093756Y-33887300D03*
X146743756Y-33887300D03*
X147393756Y-33887300D03*
X148043756Y-33887300D03*
X148043756Y-39612300D03*
X147393756Y-39612300D03*
X146743756Y-39612300D03*
X146093756Y-39612300D03*
X145443756Y-39612300D03*
X144793756Y-39612300D03*
X144143756Y-39612300D03*
X143493756Y-39612300D03*
X142843756Y-39612300D03*
X142193756Y-39612300D03*
X141543756Y-39612300D03*
X140893756Y-39612300D03*
%TD*%
D11*
%TO.C,HALL47*%
X124862456Y-65277300D03*
X126762456Y-65277300D03*
X125812456Y-67152300D03*
%TD*%
D12*
%TO.C,C105*%
X53048756Y-64328500D03*
X53048756Y-65288500D03*
%TD*%
%TO.C,C115*%
X148298756Y-64328500D03*
X148298756Y-65288500D03*
%TD*%
%TO.C,C62*%
X147292256Y-26983500D03*
X147292256Y-27943500D03*
%TD*%
D15*
%TO.C,R65*%
X50337500Y-57800000D03*
X47412500Y-57800000D03*
%TD*%
D12*
%TO.C,C64*%
X166342256Y-26983500D03*
X166342256Y-27943500D03*
%TD*%
%TO.C,C141*%
X274505006Y-83378500D03*
X274505006Y-84338500D03*
%TD*%
%TO.C,C78*%
X37754756Y-46033500D03*
X37754756Y-46993500D03*
%TD*%
%TO.C,C113*%
X129248756Y-64328500D03*
X129248756Y-65288500D03*
%TD*%
%TO.C,C60*%
X128242256Y-26983500D03*
X128242256Y-27943500D03*
%TD*%
%TO.C,C88*%
X133004756Y-46033500D03*
X133004756Y-46993500D03*
%TD*%
D13*
%TO.C,R47*%
X90078756Y-64319500D03*
X90078756Y-65339500D03*
%TD*%
D12*
%TO.C,C66*%
X185392256Y-26983500D03*
X185392256Y-27943500D03*
%TD*%
D11*
%TO.C,HALL44*%
X67712456Y-65277300D03*
X69612456Y-65277300D03*
X68662456Y-67152300D03*
%TD*%
%TO.C,HALL39*%
X210587456Y-46227300D03*
X212487456Y-46227300D03*
X211537456Y-48102300D03*
%TD*%
D16*
%TO.C,U2*%
X48043750Y-55075000D03*
X48043750Y-52775000D03*
D17*
X54343750Y-52775000D03*
D16*
X48043750Y-50475000D03*
%TD*%
D12*
%TO.C,C74*%
X266354756Y-26983500D03*
X266354756Y-27943500D03*
%TD*%
D13*
%TO.C,R61*%
X225810006Y-83369500D03*
X225810006Y-84389500D03*
%TD*%
D11*
%TO.C,HALL6*%
X101049956Y-8127300D03*
X102949956Y-8127300D03*
X101999956Y-10002300D03*
%TD*%
D12*
%TO.C,C118*%
X180629756Y-65083500D03*
X180629756Y-66043500D03*
%TD*%
%TO.C,C98*%
X228254756Y-46033500D03*
X228254756Y-46993500D03*
%TD*%
D11*
%TO.C,HALL4*%
X62949956Y-8127300D03*
X64849956Y-8127300D03*
X63899956Y-10002300D03*
%TD*%
%TO.C,HALL36*%
X153437456Y-46227300D03*
X155337456Y-46227300D03*
X154387456Y-48102300D03*
%TD*%
%TO.C,HALL13*%
X234399956Y-8127300D03*
X236299956Y-8127300D03*
X235349956Y-10002300D03*
%TD*%
D18*
%TO.C,C12*%
X20407756Y-39609900D03*
X20407756Y-38649900D03*
%TD*%
D12*
%TO.C,C68*%
X204442256Y-26983500D03*
X204442256Y-27943500D03*
%TD*%
D11*
%TO.C,HALL22*%
X148674956Y-27177300D03*
X150574956Y-27177300D03*
X149624956Y-29052300D03*
%TD*%
D12*
%TO.C,C84*%
X94904756Y-46033500D03*
X94904756Y-46993500D03*
%TD*%
D11*
%TO.C,HALL33*%
X96287456Y-46227300D03*
X98187456Y-46227300D03*
X97237456Y-48102300D03*
%TD*%
D18*
%TO.C,C4*%
X155457549Y-70992300D03*
X155457549Y-70032300D03*
%TD*%
D19*
%TO.C,FB2*%
X40477456Y-13800000D03*
X38352456Y-13800000D03*
%TD*%
D12*
%TO.C,C59*%
X114961256Y-26228500D03*
X114961256Y-27188500D03*
%TD*%
%TO.C,C19*%
X29236256Y-7178500D03*
X29236256Y-8138500D03*
%TD*%
%TO.C,C38*%
X175867256Y-7933500D03*
X175867256Y-8893500D03*
%TD*%
D13*
%TO.C,R7*%
X85316256Y-7169500D03*
X85316256Y-8189500D03*
%TD*%
%TO.C,R5*%
X47216256Y-7169500D03*
X47216256Y-8189500D03*
%TD*%
%TO.C,R62*%
X249622506Y-83369500D03*
X249622506Y-84389500D03*
%TD*%
%TO.C,R56*%
X11497506Y-83369500D03*
X11497506Y-84389500D03*
%TD*%
D18*
%TO.C,C22*%
X200945256Y-39609900D03*
X200945256Y-38649900D03*
%TD*%
D11*
%TO.C,HALL15*%
X10562456Y-27177300D03*
X12462456Y-27177300D03*
X11512456Y-29052300D03*
%TD*%
D12*
%TO.C,C81*%
X62573756Y-45278500D03*
X62573756Y-46238500D03*
%TD*%
D13*
%TO.C,R55*%
X259147506Y-64319500D03*
X259147506Y-65339500D03*
%TD*%
D11*
%TO.C,HALL12*%
X215349956Y-8127300D03*
X217249956Y-8127300D03*
X216299956Y-10002300D03*
%TD*%
D14*
%TO.C,U7*%
X202043756Y-33887300D03*
X202693756Y-33887300D03*
X203343756Y-33887300D03*
X203993756Y-33887300D03*
X204643756Y-33887300D03*
X205293756Y-33887300D03*
X205943756Y-33887300D03*
X206593756Y-33887300D03*
X207243756Y-33887300D03*
X207893756Y-33887300D03*
X208543756Y-33887300D03*
X209193756Y-33887300D03*
X209193756Y-39612300D03*
X208543756Y-39612300D03*
X207893756Y-39612300D03*
X207243756Y-39612300D03*
X206593756Y-39612300D03*
X205943756Y-39612300D03*
X205293756Y-39612300D03*
X204643756Y-39612300D03*
X203993756Y-39612300D03*
X203343756Y-39612300D03*
X202693756Y-39612300D03*
X202043756Y-39612300D03*
%TD*%
D12*
%TO.C,C136*%
X221111006Y-84133500D03*
X221111006Y-85093500D03*
%TD*%
%TO.C,C116*%
X161579756Y-65083500D03*
X161579756Y-66043500D03*
%TD*%
D13*
%TO.C,R1*%
X9116256Y-7169500D03*
X9116256Y-8189500D03*
%TD*%
D11*
%TO.C,HALL20*%
X110574956Y-27177300D03*
X112474956Y-27177300D03*
X111524956Y-29052300D03*
%TD*%
D13*
%TO.C,R14*%
X218666256Y-7169500D03*
X218666256Y-8189500D03*
%TD*%
%TO.C,R10*%
X142466256Y-7169500D03*
X142466256Y-8189500D03*
%TD*%
%TO.C,R41*%
X213903756Y-45269500D03*
X213903756Y-46289500D03*
%TD*%
D11*
%TO.C,HALL2*%
X24849956Y-8127300D03*
X26749956Y-8127300D03*
X25799956Y-10002300D03*
%TD*%
D20*
%TO.C,C6*%
X151932268Y-72072488D03*
X150972268Y-72072488D03*
%TD*%
D12*
%TO.C,C97*%
X214973756Y-45278500D03*
X214973756Y-46238500D03*
%TD*%
D13*
%TO.C,R45*%
X51978756Y-64319500D03*
X51978756Y-65339500D03*
%TD*%
D12*
%TO.C,C27*%
X67336256Y-7178500D03*
X67336256Y-8138500D03*
%TD*%
%TO.C,C45*%
X238786256Y-7178500D03*
X238786256Y-8138500D03*
%TD*%
D21*
%TO.C,C142*%
X36541206Y-13800000D03*
X36541206Y-15700000D03*
%TD*%
D12*
%TO.C,C140*%
X268736006Y-84133500D03*
X268736006Y-85093500D03*
%TD*%
%TO.C,C29*%
X86386256Y-7178500D03*
X86386256Y-8138500D03*
%TD*%
%TO.C,C85*%
X100673756Y-45278500D03*
X100673756Y-46238500D03*
%TD*%
%TO.C,C28*%
X80617256Y-7933500D03*
X80617256Y-8893500D03*
%TD*%
%TO.C,C133*%
X131630006Y-83378500D03*
X131630006Y-84338500D03*
%TD*%
D13*
%TO.C,R34*%
X80553756Y-45269500D03*
X80553756Y-46289500D03*
%TD*%
D12*
%TO.C,C14*%
X140704956Y-79759800D03*
X140704956Y-80719800D03*
%TD*%
%TO.C,C43*%
X219736256Y-7178500D03*
X219736256Y-8138500D03*
%TD*%
D11*
%TO.C,HALL34*%
X115337456Y-46227300D03*
X117237456Y-46227300D03*
X116287456Y-48102300D03*
%TD*%
D13*
%TO.C,R29*%
X247241256Y-26219500D03*
X247241256Y-27239500D03*
%TD*%
D12*
%TO.C,C87*%
X119723756Y-45278500D03*
X119723756Y-46238500D03*
%TD*%
D11*
%TO.C,HALL43*%
X48662456Y-65277300D03*
X50562456Y-65277300D03*
X49612456Y-67152300D03*
%TD*%
D18*
%TO.C,C5*%
X154457549Y-70992300D03*
X154457549Y-70032300D03*
%TD*%
D12*
%TO.C,C131*%
X60192506Y-83378500D03*
X60192506Y-84338500D03*
%TD*%
D13*
%TO.C,R38*%
X156753756Y-45269500D03*
X156753756Y-46289500D03*
%TD*%
D11*
%TO.C,HALL58*%
X198681206Y-84327300D03*
X200581206Y-84327300D03*
X199631206Y-86202300D03*
%TD*%
D12*
%TO.C,C128*%
X30611006Y-84133500D03*
X30611006Y-85093500D03*
%TD*%
D11*
%TO.C,HALL59*%
X222493706Y-84327300D03*
X224393706Y-84327300D03*
X223443706Y-86202300D03*
%TD*%
D13*
%TO.C,R13*%
X199616256Y-7169500D03*
X199616256Y-8189500D03*
%TD*%
%TO.C,R30*%
X271053756Y-26219500D03*
X271053756Y-27239500D03*
%TD*%
%TO.C,R23*%
X132941256Y-26219500D03*
X132941256Y-27239500D03*
%TD*%
D12*
%TO.C,C76*%
X11561006Y-46033500D03*
X11561006Y-46993500D03*
%TD*%
%TO.C,C121*%
X205448756Y-64328500D03*
X205448756Y-65288500D03*
%TD*%
D11*
%TO.C,HALL32*%
X77237456Y-46227300D03*
X79137456Y-46227300D03*
X78187456Y-48102300D03*
%TD*%
D12*
%TO.C,C2*%
X10186256Y-7178500D03*
X10186256Y-8138500D03*
%TD*%
D13*
%TO.C,R46*%
X71028756Y-64319500D03*
X71028756Y-65339500D03*
%TD*%
D12*
%TO.C,C91*%
X157823756Y-45278500D03*
X157823756Y-46238500D03*
%TD*%
D22*
%TO.C,C15*%
X45300000Y-50525000D03*
X45300000Y-53475000D03*
%TD*%
D12*
%TO.C,C52*%
X52042256Y-26983500D03*
X52042256Y-27943500D03*
%TD*%
D11*
%TO.C,HALL7*%
X120099956Y-8127300D03*
X121999956Y-8127300D03*
X121049956Y-10002300D03*
%TD*%
D13*
%TO.C,R63*%
X273435006Y-83369500D03*
X273435006Y-84389500D03*
%TD*%
D12*
%TO.C,C96*%
X209204756Y-46033500D03*
X209204756Y-46993500D03*
%TD*%
D23*
%TO.C,Y1*%
X144504956Y-81469800D03*
X142304956Y-81469800D03*
X142304956Y-79769800D03*
X144504956Y-79769800D03*
%TD*%
D13*
%TO.C,R24*%
X151991256Y-26219500D03*
X151991256Y-27239500D03*
%TD*%
D12*
%TO.C,C109*%
X91148756Y-64328500D03*
X91148756Y-65288500D03*
%TD*%
D14*
%TO.C,U8*%
X255193756Y-33193500D03*
X255843756Y-33193500D03*
X256493756Y-33193500D03*
X257143756Y-33193500D03*
X257793756Y-33193500D03*
X258443756Y-33193500D03*
X259093756Y-33193500D03*
X259743756Y-33193500D03*
X260393756Y-33193500D03*
X261043756Y-33193500D03*
X261693756Y-33193500D03*
X262343756Y-33193500D03*
X262343756Y-38918500D03*
X261693756Y-38918500D03*
X261043756Y-38918500D03*
X260393756Y-38918500D03*
X259743756Y-38918500D03*
X259093756Y-38918500D03*
X258443756Y-38918500D03*
X257793756Y-38918500D03*
X257143756Y-38918500D03*
X256493756Y-38918500D03*
X255843756Y-38918500D03*
X255193756Y-38918500D03*
%TD*%
D13*
%TO.C,R32*%
X42453756Y-45269500D03*
X42453756Y-46289500D03*
%TD*%
D11*
%TO.C,HALL55*%
X31993706Y-84327300D03*
X33893706Y-84327300D03*
X32943706Y-86202300D03*
%TD*%
D12*
%TO.C,C120*%
X199679756Y-65083500D03*
X199679756Y-66043500D03*
%TD*%
D13*
%TO.C,R12*%
X180566256Y-7169500D03*
X180566256Y-8189500D03*
%TD*%
D11*
%TO.C,HALL9*%
X158199956Y-8127300D03*
X160099956Y-8127300D03*
X159149956Y-10002300D03*
%TD*%
%TO.C,HALL41*%
X260593706Y-46227300D03*
X262493706Y-46227300D03*
X261543706Y-48102300D03*
%TD*%
D24*
%TO.C,U3*%
X104624956Y-86069800D03*
X106624956Y-86069800D03*
X105624956Y-86069800D03*
D25*
X102624956Y-84619800D03*
X108624956Y-84619800D03*
%TD*%
D12*
%TO.C,C31*%
X105436256Y-7178500D03*
X105436256Y-8138500D03*
%TD*%
%TO.C,C123*%
X224498756Y-64328500D03*
X224498756Y-65288500D03*
%TD*%
D11*
%TO.C,HALL45*%
X86762456Y-65277300D03*
X88662456Y-65277300D03*
X87712456Y-67152300D03*
%TD*%
D13*
%TO.C,R15*%
X237716256Y-7169500D03*
X237716256Y-8189500D03*
%TD*%
D12*
%TO.C,C37*%
X162586256Y-7178500D03*
X162586256Y-8138500D03*
%TD*%
D11*
%TO.C,HALL11*%
X196299956Y-8127300D03*
X198199956Y-8127300D03*
X197249956Y-10002300D03*
%TD*%
D12*
%TO.C,C36*%
X156817256Y-7933500D03*
X156817256Y-8893500D03*
%TD*%
%TO.C,C95*%
X195923756Y-45278500D03*
X195923756Y-46238500D03*
%TD*%
D11*
%TO.C,HALL28*%
X267737456Y-27177300D03*
X269637456Y-27177300D03*
X268687456Y-29052300D03*
%TD*%
D18*
%TO.C,C20*%
X139795256Y-39609900D03*
X139795256Y-38649900D03*
%TD*%
D11*
%TO.C,HALL42*%
X17706206Y-65277300D03*
X19606206Y-65277300D03*
X18656206Y-67152300D03*
%TD*%
D13*
%TO.C,R4*%
X28166256Y-7169500D03*
X28166256Y-8189500D03*
%TD*%
D12*
%TO.C,C32*%
X118717256Y-7933500D03*
X118717256Y-8893500D03*
%TD*%
D11*
%TO.C,HALL19*%
X91524956Y-27177300D03*
X93424956Y-27177300D03*
X92474956Y-29052300D03*
%TD*%
D14*
%TO.C,U4*%
X21506256Y-33887300D03*
X22156256Y-33887300D03*
X22806256Y-33887300D03*
X23456256Y-33887300D03*
X24106256Y-33887300D03*
X24756256Y-33887300D03*
X25406256Y-33887300D03*
X26056256Y-33887300D03*
X26706256Y-33887300D03*
X27356256Y-33887300D03*
X28006256Y-33887300D03*
X28656256Y-33887300D03*
X28656256Y-39612300D03*
X28006256Y-39612300D03*
X27356256Y-39612300D03*
X26706256Y-39612300D03*
X26056256Y-39612300D03*
X25406256Y-39612300D03*
X24756256Y-39612300D03*
X24106256Y-39612300D03*
X23456256Y-39612300D03*
X22806256Y-39612300D03*
X22156256Y-39612300D03*
X21506256Y-39612300D03*
%TD*%
D11*
%TO.C,HALL38*%
X191537456Y-46227300D03*
X193437456Y-46227300D03*
X192487456Y-48102300D03*
%TD*%
D12*
%TO.C,C83*%
X81623756Y-45278500D03*
X81623756Y-46238500D03*
%TD*%
%TO.C,C48*%
X9179756Y-26983500D03*
X9179756Y-27943500D03*
%TD*%
D11*
%TO.C,HALL54*%
X8181206Y-84327300D03*
X10081206Y-84327300D03*
X9131206Y-86202300D03*
%TD*%
D13*
%TO.C,R28*%
X228191256Y-26219500D03*
X228191256Y-27239500D03*
%TD*%
%TO.C,R9*%
X123416256Y-7169500D03*
X123416256Y-8189500D03*
%TD*%
D26*
%TO.C,C9*%
X155664956Y-81727300D03*
X156624956Y-81727300D03*
%TD*%
D12*
%TO.C,C94*%
X190154756Y-46033500D03*
X190154756Y-46993500D03*
%TD*%
%TO.C,C47*%
X267361256Y-7178500D03*
X267361256Y-8138500D03*
%TD*%
D11*
%TO.C,HALL52*%
X220112456Y-65277300D03*
X222012456Y-65277300D03*
X221062456Y-67152300D03*
%TD*%
%TO.C,HALL3*%
X43899956Y-8127300D03*
X45799956Y-8127300D03*
X44849956Y-10002300D03*
%TD*%
D12*
%TO.C,C33*%
X124486256Y-7178500D03*
X124486256Y-8138500D03*
%TD*%
%TO.C,C56*%
X90142256Y-26983500D03*
X90142256Y-27943500D03*
%TD*%
D13*
%TO.C,R48*%
X109128756Y-64319500D03*
X109128756Y-65339500D03*
%TD*%
%TO.C,R52*%
X185328756Y-64319500D03*
X185328756Y-65339500D03*
%TD*%
%TO.C,R60*%
X201997506Y-83369500D03*
X201997506Y-84389500D03*
%TD*%
D11*
%TO.C,HALL53*%
X255831206Y-65277300D03*
X257731206Y-65277300D03*
X256781206Y-67152300D03*
%TD*%
%TO.C,HALL23*%
X167724956Y-27177300D03*
X169624956Y-27177300D03*
X168674956Y-29052300D03*
%TD*%
D12*
%TO.C,C35*%
X143536256Y-7178500D03*
X143536256Y-8138500D03*
%TD*%
D14*
%TO.C,U5*%
X83637456Y-33887300D03*
X84287456Y-33887300D03*
X84937456Y-33887300D03*
X85587456Y-33887300D03*
X86237456Y-33887300D03*
X86887456Y-33887300D03*
X87537456Y-33887300D03*
X88187456Y-33887300D03*
X88837456Y-33887300D03*
X89487456Y-33887300D03*
X90137456Y-33887300D03*
X90787456Y-33887300D03*
X90787456Y-39612300D03*
X90137456Y-39612300D03*
X89487456Y-39612300D03*
X88837456Y-39612300D03*
X88187456Y-39612300D03*
X87537456Y-39612300D03*
X86887456Y-39612300D03*
X86237456Y-39612300D03*
X85587456Y-39612300D03*
X84937456Y-39612300D03*
X84287456Y-39612300D03*
X83637456Y-39612300D03*
%TD*%
D13*
%TO.C,R35*%
X99603756Y-45269500D03*
X99603756Y-46289500D03*
%TD*%
D12*
%TO.C,C132*%
X125861006Y-84133500D03*
X125861006Y-85093500D03*
%TD*%
D18*
%TO.C,C11*%
X155054956Y-73677300D03*
X155054956Y-72717300D03*
%TD*%
D11*
%TO.C,HALL40*%
X229637456Y-46227300D03*
X231537456Y-46227300D03*
X230587456Y-48102300D03*
%TD*%
%TO.C,HALL49*%
X162962456Y-65277300D03*
X164862456Y-65277300D03*
X163912456Y-67152300D03*
%TD*%
D13*
%TO.C,R58*%
X59122506Y-83369500D03*
X59122506Y-84389500D03*
%TD*%
%TO.C,R43*%
X263910006Y-45269500D03*
X263910006Y-46289500D03*
%TD*%
D12*
%TO.C,C137*%
X226880006Y-83378500D03*
X226880006Y-84338500D03*
%TD*%
D13*
%TO.C,R57*%
X35310006Y-83369500D03*
X35310006Y-84389500D03*
%TD*%
D12*
%TO.C,C39*%
X181636256Y-7178500D03*
X181636256Y-8138500D03*
%TD*%
%TO.C,C77*%
X17330006Y-45278500D03*
X17330006Y-46238500D03*
%TD*%
D11*
%TO.C,HALL1*%
X5799956Y-8127300D03*
X7699956Y-8127300D03*
X6749956Y-10002300D03*
%TD*%
%TO.C,HALL61*%
X270118706Y-84327300D03*
X272018706Y-84327300D03*
X271068706Y-86202300D03*
%TD*%
D13*
%TO.C,R17*%
X13878756Y-26219500D03*
X13878756Y-27239500D03*
%TD*%
D27*
%TO.C,R64*%
X45300000Y-55237500D03*
X45300000Y-58162500D03*
%TD*%
D12*
%TO.C,C24*%
X42517256Y-7933500D03*
X42517256Y-8893500D03*
%TD*%
D13*
%TO.C,R53*%
X204378756Y-64319500D03*
X204378756Y-65339500D03*
%TD*%
D11*
%TO.C,HALL8*%
X139149956Y-8127300D03*
X141049956Y-8127300D03*
X140099956Y-10002300D03*
%TD*%
D12*
%TO.C,C79*%
X43523756Y-45278500D03*
X43523756Y-46238500D03*
%TD*%
D28*
%TO.C,R2*%
X145094956Y-78362300D03*
X144074956Y-78362300D03*
%TD*%
D12*
%TO.C,C125*%
X260217506Y-64328500D03*
X260217506Y-65288500D03*
%TD*%
%TO.C,C58*%
X109192256Y-26983500D03*
X109192256Y-27943500D03*
%TD*%
%TO.C,C106*%
X66329756Y-65083500D03*
X66329756Y-66043500D03*
%TD*%
D18*
%TO.C,C10*%
X82538956Y-39609900D03*
X82538956Y-38649900D03*
%TD*%
D29*
%TO.C,C16*%
X55112500Y-57800000D03*
X52162500Y-57800000D03*
%TD*%
D12*
%TO.C,C54*%
X71092256Y-26983500D03*
X71092256Y-27943500D03*
%TD*%
%TO.C,C92*%
X171104756Y-46033500D03*
X171104756Y-46993500D03*
%TD*%
%TO.C,C108*%
X85379756Y-65083500D03*
X85379756Y-66043500D03*
%TD*%
%TO.C,C124*%
X254448506Y-65083500D03*
X254448506Y-66043500D03*
%TD*%
%TO.C,C25*%
X48286256Y-7178500D03*
X48286256Y-8138500D03*
%TD*%
D13*
%TO.C,R6*%
X66266256Y-7169500D03*
X66266256Y-8189500D03*
%TD*%
%TO.C,R27*%
X209141256Y-26219500D03*
X209141256Y-27239500D03*
%TD*%
%TO.C,R36*%
X118653756Y-45269500D03*
X118653756Y-46289500D03*
%TD*%
D12*
%TO.C,C86*%
X113954756Y-46033500D03*
X113954756Y-46993500D03*
%TD*%
%TO.C,C130*%
X54423506Y-84133500D03*
X54423506Y-85093500D03*
%TD*%
D30*
%TO.C,U1*%
X147212456Y-80707300D03*
X147212456Y-80207300D03*
X147212456Y-79707300D03*
X147212456Y-79207300D03*
X147212456Y-78707300D03*
X147212456Y-78207300D03*
X147212456Y-77707300D03*
X147212456Y-77207300D03*
X147212456Y-76707300D03*
X147212456Y-76207300D03*
X147212456Y-75707300D03*
X147212456Y-75207300D03*
D31*
X148624956Y-73794800D03*
X149124956Y-73794800D03*
X149624956Y-73794800D03*
X150124956Y-73794800D03*
X150624956Y-73794800D03*
X151124956Y-73794800D03*
X151624956Y-73794800D03*
X152124956Y-73794800D03*
X152624956Y-73794800D03*
X153124956Y-73794800D03*
X153624956Y-73794800D03*
X154124956Y-73794800D03*
D30*
X155537456Y-75207300D03*
X155537456Y-75707300D03*
X155537456Y-76207300D03*
X155537456Y-76707300D03*
X155537456Y-77207300D03*
X155537456Y-77707300D03*
X155537456Y-78207300D03*
X155537456Y-78707300D03*
X155537456Y-79207300D03*
X155537456Y-79707300D03*
X155537456Y-80207300D03*
X155537456Y-80707300D03*
D31*
X154124956Y-82119800D03*
X153624956Y-82119800D03*
X153124956Y-82119800D03*
X152624956Y-82119800D03*
X152124956Y-82119800D03*
X151624956Y-82119800D03*
X151124956Y-82119800D03*
X150624956Y-82119800D03*
X150124956Y-82119800D03*
X149624956Y-82119800D03*
X149124956Y-82119800D03*
X148624956Y-82119800D03*
%TD*%
D13*
%TO.C,R50*%
X147228756Y-64319500D03*
X147228756Y-65339500D03*
%TD*%
D18*
%TO.C,C17*%
X98224956Y-89307300D03*
X98224956Y-88347300D03*
%TD*%
D12*
%TO.C,C138*%
X244923506Y-84133500D03*
X244923506Y-85093500D03*
%TD*%
%TO.C,C112*%
X123479756Y-65083500D03*
X123479756Y-66043500D03*
%TD*%
D11*
%TO.C,HALL5*%
X81999956Y-8127300D03*
X83899956Y-8127300D03*
X82949956Y-10002300D03*
%TD*%
D12*
%TO.C,C103*%
X22092506Y-64328500D03*
X22092506Y-65288500D03*
%TD*%
D13*
%TO.C,R31*%
X16260006Y-45269500D03*
X16260006Y-46289500D03*
%TD*%
D12*
%TO.C,C90*%
X152054756Y-46033500D03*
X152054756Y-46993500D03*
%TD*%
D11*
%TO.C,HALL51*%
X201062456Y-65277300D03*
X202962456Y-65277300D03*
X202012456Y-67152300D03*
%TD*%
D32*
%TO.C,R3*%
X105624956Y-87482300D03*
X105624956Y-89132300D03*
%TD*%
D13*
%TO.C,R19*%
X56741256Y-26219500D03*
X56741256Y-27239500D03*
%TD*%
%TO.C,R26*%
X190091256Y-26219500D03*
X190091256Y-27239500D03*
%TD*%
D12*
%TO.C,C26*%
X61567256Y-7933500D03*
X61567256Y-8893500D03*
%TD*%
%TO.C,C82*%
X75854756Y-46033500D03*
X75854756Y-46993500D03*
%TD*%
D13*
%TO.C,R54*%
X223428756Y-64319500D03*
X223428756Y-65339500D03*
%TD*%
%TO.C,R18*%
X37691256Y-26219500D03*
X37691256Y-27239500D03*
%TD*%
D33*
%TO.C,C23*%
X40484956Y-15800000D03*
X38584956Y-15800000D03*
%TD*%
D12*
%TO.C,C119*%
X186398756Y-64328500D03*
X186398756Y-65288500D03*
%TD*%
%TO.C,C61*%
X134011256Y-26228500D03*
X134011256Y-27188500D03*
%TD*%
D11*
%TO.C,HALL16*%
X34374956Y-27177300D03*
X36274956Y-27177300D03*
X35324956Y-29052300D03*
%TD*%
D18*
%TO.C,C21*%
X254095256Y-38916100D03*
X254095256Y-37956100D03*
%TD*%
D13*
%TO.C,R20*%
X75791256Y-26219500D03*
X75791256Y-27239500D03*
%TD*%
D20*
%TO.C,C7*%
X151932268Y-71072488D03*
X150972268Y-71072488D03*
%TD*%
D12*
%TO.C,C67*%
X191161256Y-26228500D03*
X191161256Y-27188500D03*
%TD*%
D26*
%TO.C,C8*%
X148404956Y-83717300D03*
X149364956Y-83717300D03*
%TD*%
D12*
%TO.C,C44*%
X233017256Y-7933500D03*
X233017256Y-8893500D03*
%TD*%
%TO.C,C1*%
X4417256Y-7933500D03*
X4417256Y-8893500D03*
%TD*%
%TO.C,C18*%
X23467256Y-7933500D03*
X23467256Y-8893500D03*
%TD*%
%TO.C,C89*%
X138773756Y-45278500D03*
X138773756Y-46238500D03*
%TD*%
%TO.C,C63*%
X153061256Y-26228500D03*
X153061256Y-27188500D03*
%TD*%
%TO.C,C111*%
X110198756Y-64328500D03*
X110198756Y-65288500D03*
%TD*%
D13*
%TO.C,R8*%
X104366256Y-7169500D03*
X104366256Y-8189500D03*
%TD*%
D12*
%TO.C,C135*%
X203067506Y-83378500D03*
X203067506Y-84338500D03*
%TD*%
D13*
%TO.C,R33*%
X61503756Y-45269500D03*
X61503756Y-46289500D03*
%TD*%
D11*
%TO.C,HALL24*%
X186774956Y-27177300D03*
X188674956Y-27177300D03*
X187724956Y-29052300D03*
%TD*%
D12*
%TO.C,C65*%
X172111256Y-26228500D03*
X172111256Y-27188500D03*
%TD*%
D11*
%TO.C,HALL10*%
X177249956Y-8127300D03*
X179149956Y-8127300D03*
X178199956Y-10002300D03*
%TD*%
D13*
%TO.C,R40*%
X194853756Y-45269500D03*
X194853756Y-46289500D03*
%TD*%
%TO.C,R22*%
X113891256Y-26219500D03*
X113891256Y-27239500D03*
%TD*%
D12*
%TO.C,C129*%
X36380006Y-83378500D03*
X36380006Y-84338500D03*
%TD*%
D11*
%TO.C,HALL48*%
X143912456Y-65277300D03*
X145812456Y-65277300D03*
X144862456Y-67152300D03*
%TD*%
D13*
%TO.C,R44*%
X21022506Y-64319500D03*
X21022506Y-65339500D03*
%TD*%
D12*
%TO.C,C72*%
X242542256Y-26983500D03*
X242542256Y-27943500D03*
%TD*%
%TO.C,C49*%
X14948756Y-26228500D03*
X14948756Y-27188500D03*
%TD*%
D13*
%TO.C,R42*%
X232953756Y-45269500D03*
X232953756Y-46289500D03*
%TD*%
D11*
%TO.C,HALL18*%
X72474956Y-27177300D03*
X74374956Y-27177300D03*
X73424956Y-29052300D03*
%TD*%
D12*
%TO.C,C139*%
X250692506Y-83378500D03*
X250692506Y-84338500D03*
%TD*%
D20*
%TO.C,C143*%
X147144956Y-81679800D03*
X146184956Y-81679800D03*
%TD*%
D12*
%TO.C,C110*%
X104429756Y-65083500D03*
X104429756Y-66043500D03*
%TD*%
%TO.C,C46*%
X261592256Y-7933500D03*
X261592256Y-8893500D03*
%TD*%
D11*
%TO.C,HALL25*%
X205824956Y-27177300D03*
X207724956Y-27177300D03*
X206774956Y-29052300D03*
%TD*%
D12*
%TO.C,C70*%
X223492256Y-26983500D03*
X223492256Y-27943500D03*
%TD*%
%TO.C,C34*%
X137767256Y-7933500D03*
X137767256Y-8893500D03*
%TD*%
D11*
%TO.C,HALL31*%
X58187456Y-46227300D03*
X60087456Y-46227300D03*
X59137456Y-48102300D03*
%TD*%
%TO.C,HALL46*%
X105812456Y-65277300D03*
X107712456Y-65277300D03*
X106762456Y-67152300D03*
%TD*%
%TO.C,HALL56*%
X55806206Y-84327300D03*
X57706206Y-84327300D03*
X56756206Y-86202300D03*
%TD*%
D12*
%TO.C,C114*%
X142529756Y-65083500D03*
X142529756Y-66043500D03*
%TD*%
%TO.C,C126*%
X6798506Y-84133500D03*
X6798506Y-85093500D03*
%TD*%
%TO.C,C104*%
X47279756Y-65083500D03*
X47279756Y-66043500D03*
%TD*%
D13*
%TO.C,R25*%
X171041256Y-26219500D03*
X171041256Y-27239500D03*
%TD*%
D11*
%TO.C,HALL17*%
X53424956Y-27177300D03*
X55324956Y-27177300D03*
X54374956Y-29052300D03*
%TD*%
D26*
%TO.C,C3*%
X155664956Y-82757300D03*
X156624956Y-82757300D03*
%TD*%
D12*
%TO.C,C41*%
X200686256Y-7178500D03*
X200686256Y-8138500D03*
%TD*%
D13*
%TO.C,R16*%
X266291256Y-7169500D03*
X266291256Y-8189500D03*
%TD*%
D11*
%TO.C,HALL14*%
X262974956Y-8127300D03*
X264874956Y-8127300D03*
X263924956Y-10002300D03*
%TD*%
D12*
%TO.C,C99*%
X234023756Y-45278500D03*
X234023756Y-46238500D03*
%TD*%
%TO.C,C101*%
X264980006Y-45278500D03*
X264980006Y-46238500D03*
%TD*%
%TO.C,C57*%
X95911256Y-26228500D03*
X95911256Y-27188500D03*
%TD*%
%TO.C,C30*%
X99667256Y-7933500D03*
X99667256Y-8893500D03*
%TD*%
D11*
%TO.C,HALL50*%
X182012456Y-65277300D03*
X183912456Y-65277300D03*
X182962456Y-67152300D03*
%TD*%
%TO.C,HALL29*%
X12943706Y-46227300D03*
X14843706Y-46227300D03*
X13893706Y-48102300D03*
%TD*%
%TO.C,HALL57*%
X127243706Y-84327300D03*
X129143706Y-84327300D03*
X128193706Y-86202300D03*
%TD*%
D12*
%TO.C,C107*%
X72098756Y-64328500D03*
X72098756Y-65288500D03*
%TD*%
%TO.C,C69*%
X210211256Y-26228500D03*
X210211256Y-27188500D03*
%TD*%
D13*
%TO.C,R51*%
X166278756Y-64319500D03*
X166278756Y-65339500D03*
%TD*%
D12*
%TO.C,C122*%
X218729756Y-65083500D03*
X218729756Y-66043500D03*
%TD*%
D11*
%TO.C,HALL37*%
X172487456Y-46227300D03*
X174387456Y-46227300D03*
X173437456Y-48102300D03*
%TD*%
%TO.C,HALL35*%
X134387456Y-46227300D03*
X136287456Y-46227300D03*
X135337456Y-48102300D03*
%TD*%
D12*
%TO.C,C75*%
X272123756Y-26228500D03*
X272123756Y-27188500D03*
%TD*%
%TO.C,C127*%
X12567506Y-83378500D03*
X12567506Y-84338500D03*
%TD*%
%TO.C,C117*%
X167348756Y-64328500D03*
X167348756Y-65288500D03*
%TD*%
%TO.C,C40*%
X194917256Y-7933500D03*
X194917256Y-8893500D03*
%TD*%
%TO.C,C53*%
X57811256Y-26228500D03*
X57811256Y-27188500D03*
%TD*%
D34*
%TO.C,FB1*%
X153157549Y-71837300D03*
X153157549Y-70262300D03*
%TD*%
D35*
%TO.C,J1*%
X42750000Y-16000000D03*
X42750000Y-17000000D03*
X42750000Y-18000000D03*
X42750000Y-19000000D03*
D36*
X46625000Y-14700000D03*
X46625000Y-20300000D03*
%TD*%
D11*
%TO.C,HALL26*%
X224874956Y-27177300D03*
X226774956Y-27177300D03*
X225824956Y-29052300D03*
%TD*%
D12*
%TO.C,C80*%
X56804756Y-46033500D03*
X56804756Y-46993500D03*
%TD*%
D13*
%TO.C,R37*%
X137703756Y-45269500D03*
X137703756Y-46289500D03*
%TD*%
%TO.C,R49*%
X128178756Y-64319500D03*
X128178756Y-65339500D03*
%TD*%
D12*
%TO.C,C73*%
X248311256Y-26228500D03*
X248311256Y-27188500D03*
%TD*%
%TO.C,C93*%
X176873756Y-45278500D03*
X176873756Y-46238500D03*
%TD*%
D13*
%TO.C,R39*%
X175803756Y-45269500D03*
X175803756Y-46289500D03*
%TD*%
D12*
%TO.C,C42*%
X213967256Y-7933500D03*
X213967256Y-8893500D03*
%TD*%
%TO.C,C102*%
X16323506Y-65083500D03*
X16323506Y-66043500D03*
%TD*%
D13*
%TO.C,R59*%
X130560006Y-83369500D03*
X130560006Y-84389500D03*
%TD*%
D12*
%TO.C,C71*%
X229261256Y-26228500D03*
X229261256Y-27188500D03*
%TD*%
%TO.C,C55*%
X76861256Y-26228500D03*
X76861256Y-27188500D03*
%TD*%
D11*
%TO.C,HALL21*%
X129624956Y-27177300D03*
X131524956Y-27177300D03*
X130574956Y-29052300D03*
%TD*%
D12*
%TO.C,C100*%
X259211006Y-46033500D03*
X259211006Y-46993500D03*
%TD*%
D18*
%TO.C,C13*%
X140714956Y-82639800D03*
X140714956Y-81679800D03*
%TD*%
D11*
%TO.C,HALL27*%
X243924956Y-27177300D03*
X245824956Y-27177300D03*
X244874956Y-29052300D03*
%TD*%
%TO.C,HALL30*%
X39137456Y-46227300D03*
X41037456Y-46227300D03*
X40087456Y-48102300D03*
%TD*%
D13*
%TO.C,R21*%
X94841256Y-26219500D03*
X94841256Y-27239500D03*
%TD*%
D12*
%TO.C,C134*%
X197298506Y-84133500D03*
X197298506Y-85093500D03*
%TD*%
M02*
