M48
; DRILL file {KiCad 7.0.7} date Sat Dec  9 23:09:19 2023
; FORMAT={-:-/ absolute / inch / decimal}
; #@! TF.CreationDate,2023-12-09T23:09:19-05:00
; #@! TF.GenerationSoftware,Kicad,Pcbnew,7.0.7
; #@! TF.FileFunction,NonPlated,1,4,NPTH
FMAT,2
INCH
; #@! TA.AperFunction,NonPlated,NPTH,ComponentDrill
T1C0.0454
; #@! TA.AperFunction,NonPlated,NPTH,ComponentDrill
T2C0.0689
; #@! TA.AperFunction,NonPlated,NPTH,ComponentDrill
T3C0.1570
%
G90
G05
T1
X0.0492Y-0.1378
X0.0492Y-3.5671
X10.9823Y-3.5709
T2
X0.0657Y-0.3561
X0.1595Y-3.3561
X0.2532Y-1.1061
X0.347Y-1.8561
X0.4657Y-0.3561
X0.5345Y-2.6061
X0.5595Y-3.3561
X0.6532Y-1.1061
X0.747Y-1.8561
X0.8157Y-0.3561
X0.9345Y-2.6061
X1.097Y-3.3561
X1.1907Y-1.1061
X1.2157Y-0.3561
X1.3782Y-1.8561
X1.497Y-3.3561
X1.5657Y-0.3561
X1.5907Y-1.1061
X1.7532Y-2.6061
X1.7782Y-1.8561
X1.9407Y-1.1061
X1.9657Y-0.3561
X2.0345Y-3.3561
X2.1282Y-1.8561
X2.1532Y-2.6061
X2.3157Y-0.3561
X2.3407Y-1.1061
X2.4345Y-3.3561
X2.5032Y-2.6061
X2.5282Y-1.8561
X2.6907Y-1.1061
X2.7157Y-0.3561
X2.8782Y-1.8561
X2.9032Y-2.6061
X3.0657Y-0.3561
X3.0907Y-1.1061
X3.2532Y-2.6061
X3.2782Y-1.8561
X3.4407Y-1.1061
X3.4657Y-0.3561
X3.6282Y-1.8561
X3.6532Y-2.6061
X3.8157Y-0.3561
X3.8407Y-1.1061
X4.0032Y-2.6061
X4.0282Y-1.8561
X4.1907Y-1.1061
X4.2157Y-0.3561
X4.3782Y-1.8561
X4.4032Y-2.6061
X4.5657Y-0.3561
X4.5907Y-1.1061
X4.7532Y-2.6061
X4.7782Y-1.8561
X4.847Y-3.3561
X4.9407Y-1.1061
X4.9657Y-0.3561
X5.1282Y-1.8561
X5.1532Y-2.6061
X5.247Y-3.3561
X5.3157Y-0.3561
X5.3407Y-1.1061
X5.5032Y-2.6061
X5.5282Y-1.8561
X5.6907Y-1.1061
X5.7157Y-0.3561
X5.8782Y-1.8561
X5.9032Y-2.6061
X6.0657Y-0.3561
X6.0907Y-1.1061
X6.2532Y-2.6061
X6.2782Y-1.8561
X6.4407Y-1.1061
X6.4657Y-0.3561
X6.6282Y-1.8561
X6.6532Y-2.6061
X6.8157Y-0.3561
X6.8407Y-1.1061
X7.0032Y-2.6061
X7.0282Y-1.8561
X7.1907Y-1.1061
X7.2157Y-0.3561
X7.3782Y-1.8561
X7.4032Y-2.6061
X7.5657Y-0.3561
X7.5907Y-1.1061
X7.6595Y-3.3561
X7.7532Y-2.6061
X7.7782Y-1.8561
X7.9407Y-1.1061
X7.9657Y-0.3561
X8.0595Y-3.3561
X8.1282Y-1.8561
X8.1532Y-2.6061
X8.3157Y-0.3561
X8.3407Y-1.1061
X8.5032Y-2.6061
X8.5282Y-1.8561
X8.597Y-3.3561
X8.6907Y-1.1061
X8.7157Y-0.3561
X8.8782Y-1.8561
X8.9032Y-2.6061
X8.997Y-3.3561
X9.0657Y-0.3561
X9.0907Y-1.1061
X9.2782Y-1.8561
X9.4407Y-1.1061
X9.4657Y-0.3561
X9.5345Y-3.3561
X9.8407Y-1.1061
X9.9095Y-2.6061
X9.9345Y-3.3561
X10.097Y-1.8561
X10.1907Y-0.3561
X10.3095Y-2.6061
X10.3782Y-1.1061
X10.472Y-3.3561
X10.497Y-1.8561
X10.5907Y-0.3561
X10.7782Y-1.1061
X10.872Y-3.3561
T3
X0.2657Y-2.9311
X1.2032Y-2.9311
X3.0782Y-3.0311
X7.0157Y-3.0311
X9.6407Y-2.9311
X9.8282Y-2.1811
X9.922Y-0.6811
X10.5782Y-2.9311
X10.7657Y-2.1811
X10.8595Y-0.6811
T0
M30
