M48
; DRILL file {KiCad 7.0.7} date Sat Dec  9 23:09:19 2023
; FORMAT={-:-/ absolute / inch / decimal}
; #@! TF.CreationDate,2023-12-09T23:09:19-05:00
; #@! TF.GenerationSoftware,Kicad,Pcbnew,7.0.7
; #@! TF.FileFunction,Plated,1,4,PTH
FMAT,2
INCH
; #@! TA.AperFunction,Plated,PTH,ViaDrill
T1C0.0118
; #@! TA.AperFunction,Plated,PTH,ComponentDrill
T2C0.0394
; #@! TA.AperFunction,Plated,PTH,ComponentDrill
T3C0.0866
; #@! TA.AperFunction,Plated,PTH,ComponentDrill
T4C0.1200
%
G90
G05
T1
X0.1739Y-0.3864
X0.2677Y-3.3864
X0.3435Y-0.3928
X0.3614Y-1.1364
X0.4015Y-0.3568
X0.4357Y-0.2823
X0.4372Y-3.3928
X0.4552Y-1.8864
X0.4948Y-3.2513
X0.4952Y-3.3568
X0.531Y-1.1428
X0.589Y-1.1068
X0.6232Y-1.0323
X0.6247Y-1.8928
X0.6427Y-2.6364
X0.6827Y-1.7519
X0.6827Y-1.8568
X0.7677Y-1.5216
X0.7677Y-1.559
X0.8122Y-2.6428
X0.8702Y-2.6068
X0.872Y-1.5089
X0.8723Y-1.3848
X0.8976Y-1.6102
X0.8986Y-1.2835
X0.9045Y-2.5323
X0.9232Y-1.5089
X0.9239Y-0.3864
X0.9242Y-1.3848
X0.9488Y-1.6102
X0.9491Y-1.2835
X0.9744Y-1.5089
X1.0Y-1.6102
X1.0002Y-1.2835
X1.0256Y-1.5089
X1.0266Y-1.3848
X1.0512Y-1.6102
X1.0514Y-1.2835
X1.0771Y-1.5079
X1.0935Y-0.3928
X1.1281Y-1.3799
X1.1515Y-0.3568
X1.1857Y-0.2823
X1.2052Y-3.3864
X1.2989Y-1.1364
X1.3747Y-3.3928
X1.3819Y-0.6181
X1.3874Y-0.5394
X1.3874Y-0.5787
X1.4327Y-3.3568
X1.467Y-3.2823
X1.4685Y-1.1428
X1.4797Y-0.6496
X1.4841Y-1.3287
X1.4864Y-1.8864
X1.5265Y-1.1068
X1.5266Y-0.997
X1.656Y-1.8928
X1.6644Y-0.7961
X1.6739Y-0.3864
X1.7037Y-0.7961
X1.7136Y-1.7382
X1.714Y-1.8568
X1.7638Y-2.0433
X1.7638Y-2.2362
X1.8031Y-2.0433
X1.8031Y-2.2362
X1.8435Y-0.3928
X1.8614Y-2.6364
X1.9015Y-0.3568
X1.9252Y-2.2559
X1.9252Y-2.2953
X1.9357Y-0.2823
X2.031Y-2.6428
X2.0489Y-1.1364
X2.0885Y-2.4882
X2.089Y-2.6068
X2.1427Y-3.3864
X2.2185Y-1.1428
X2.2364Y-1.8864
X2.2765Y-1.1068
X2.2766Y-0.997
X2.3122Y-3.3928
X2.3698Y-3.2503
X2.3702Y-3.3568
X2.3878Y-1.5886
X2.406Y-1.8928
X2.4239Y-0.3864
X2.4635Y-1.7471
X2.464Y-1.8568
X2.5935Y-0.3928
X2.6114Y-2.6364
X2.6515Y-0.3568
X2.6857Y-0.2823
X2.781Y-2.6428
X2.7989Y-1.1364
X2.8376Y-2.4921
X2.839Y-2.6068
X2.9685Y-1.1428
X2.9864Y-1.8864
X3.0265Y-1.1068
X3.0607Y-1.0323
X3.156Y-1.8928
X3.1739Y-0.3864
X3.2138Y-1.5216
X3.2138Y-1.559
X3.214Y-1.8568
X3.2482Y-1.7823
X3.3183Y-1.3839
X3.3189Y-1.5094
X3.3435Y-0.3928
X3.3439Y-1.6094
X3.344Y-1.2835
X3.3614Y-2.6364
X3.3696Y-1.5094
X3.3952Y-1.2835
X3.3952Y-1.6094
X3.4015Y-0.3568
X3.4208Y-1.3839
X3.4357Y-0.2823
X3.4464Y-1.2842
X3.4468Y-1.6094
X3.4719Y-1.3839
X3.4719Y-1.5094
X3.497Y-1.2835
X3.4975Y-1.6094
X3.5232Y-1.5079
X3.531Y-2.6428
X3.5489Y-1.1364
X3.5743Y-1.3839
X3.5886Y-2.4998
X3.589Y-2.6068
X3.7185Y-1.1428
X3.7364Y-1.8864
X3.748Y-3.2323
X3.776Y-0.9959
X3.7765Y-1.1068
X3.8671Y-3.5593
X3.906Y-1.8928
X3.9239Y-0.3864
X3.9285Y-3.4782
X3.9635Y-1.7461
X3.964Y-1.8568
X4.0718Y-3.4137
X4.0935Y-0.3928
X4.1114Y-2.6364
X4.1514Y-0.2483
X4.1515Y-0.3568
X4.2152Y-3.5091
X4.2199Y-1.248
X4.281Y-2.6428
X4.2989Y-1.1364
X4.3385Y-2.4966
X4.339Y-2.6068
X4.4685Y-1.1428
X4.4864Y-1.8864
X4.5258Y-0.9904
X4.5265Y-1.1068
X4.562Y-1.5844
X4.656Y-1.8928
X4.6739Y-0.3864
X4.7136Y-1.7472
X4.714Y-1.8568
X4.8435Y-0.3928
X4.8614Y-2.6364
X4.9011Y-0.2474
X4.9015Y-0.3568
X4.9552Y-3.3864
X5.031Y-2.6428
X5.0489Y-1.1364
X5.0886Y-2.4996
X5.089Y-2.6068
X5.1247Y-3.3928
X5.1823Y-3.2494
X5.1827Y-3.3568
X5.2185Y-1.1428
X5.2364Y-1.8864
X5.2765Y-1.1068
X5.3107Y-1.0323
X5.406Y-1.8928
X5.4239Y-0.3864
X5.464Y-1.8568
X5.468Y-1.5216
X5.468Y-1.559
X5.4982Y-1.7823
X5.5021Y-1.379
X5.5134Y-1.6707
X5.5726Y-1.3848
X5.5935Y-0.3928
X5.5982Y-1.61
X5.5982Y-1.2835
X5.6114Y-2.6364
X5.6459Y-3.1744
X5.6494Y-1.2835
X5.6494Y-1.61
X5.6515Y-0.3568
X5.6857Y-0.2823
X5.7005Y-1.61
X5.7005Y-1.2835
X5.7261Y-1.3848
X5.7261Y-1.5089
X5.731Y-3.349
X5.7517Y-1.2835
X5.7517Y-1.61
X5.7553Y-3.252
X5.7662Y-3.3457
X5.7774Y-1.5079
X5.781Y-2.6428
X5.7989Y-1.1364
X5.8031Y-3.3425
X5.8285Y-1.3839
X5.8385Y-2.4965
X5.839Y-2.6068
X5.8519Y-3.0593
X5.8805Y-3.3326
X5.9054Y-2.7981
X5.9153Y-3.3258
X5.9685Y-1.1428
X5.9864Y-1.8864
X6.026Y-1.0
X6.0265Y-1.1068
X6.1204Y-2.721
X6.1469Y-2.8628
X6.156Y-1.8928
X6.1739Y-0.3864
X6.2022Y-3.2582
X6.2136Y-1.7401
X6.214Y-1.8568
X6.3435Y-0.3928
X6.3614Y-2.6364
X6.401Y-0.2481
X6.4015Y-0.3568
X6.531Y-2.6428
X6.5489Y-1.1364
X6.5886Y-2.4979
X6.589Y-2.6068
X6.7185Y-1.1428
X6.7364Y-1.8864
X6.7765Y-1.1068
X6.7766Y-0.9903
X6.906Y-1.8928
X6.9239Y-0.3864
X6.9636Y-1.7408
X6.964Y-1.8568
X7.0935Y-0.3928
X7.1114Y-2.6364
X7.1506Y-0.2508
X7.1515Y-0.3568
X7.281Y-2.6428
X7.2989Y-1.1364
X7.3385Y-2.497
X7.339Y-2.6068
X7.3559Y-1.5801
X7.4685Y-1.1428
X7.4864Y-1.8864
X7.5265Y-1.1068
X7.5607Y-1.0323
X7.656Y-1.8928
X7.6739Y-0.3864
X7.7135Y-1.7402
X7.714Y-1.8568
X7.7451Y-1.2563
X7.7677Y-3.3864
X7.8435Y-0.3928
X7.8614Y-2.6364
X7.8755Y-1.5216
X7.8755Y-1.559
X7.9015Y-0.3568
X7.9357Y-0.2823
X7.9372Y-3.3928
X7.9801Y-1.5089
X7.9808Y-1.3848
X7.9948Y-3.2477
X7.9952Y-3.3568
X8.0057Y-1.2835
X8.0057Y-1.6102
X8.031Y-2.6428
X8.0489Y-1.1364
X8.0568Y-1.2835
X8.0571Y-1.6102
X8.0827Y-1.5089
X8.0885Y-2.4961
X8.089Y-2.6068
X8.108Y-1.2835
X8.1083Y-1.6102
X8.1336Y-1.5089
X8.1337Y-1.3795
X8.1592Y-1.2835
X8.1594Y-1.6102
X8.1849Y-1.5079
X8.2185Y-1.1428
X8.2359Y-1.3839
X8.2364Y-1.8864
X8.2755Y-0.9997
X8.2765Y-1.1068
X8.406Y-1.8928
X8.4239Y-0.3864
X8.4635Y-1.7404
X8.464Y-1.8568
X8.5935Y-0.3928
X8.6114Y-2.6364
X8.6514Y-0.2509
X8.6515Y-0.3568
X8.7052Y-3.3864
X8.781Y-2.6428
X8.7989Y-1.1364
X8.8385Y-2.4978
X8.839Y-2.6068
X8.8747Y-3.3928
X8.9324Y-3.2489
X8.9327Y-3.3568
X8.9685Y-1.1428
X8.9864Y-1.8864
X9.0265Y-1.1068
X9.0266Y-0.9976
X9.156Y-1.8928
X9.1739Y-0.3864
X9.214Y-1.8568
X9.2482Y-1.7823
X9.3435Y-0.3928
X9.4012Y-0.2484
X9.4015Y-0.3568
X9.5489Y-1.1364
X9.5955Y-1.6378
X9.6427Y-3.3864
X9.7185Y-1.1428
X9.7765Y-1.1068
X9.8107Y-1.0323
X9.8122Y-3.3928
X9.8698Y-3.248
X9.8702Y-3.3568
X9.9301Y-1.3068
X9.968Y-1.4943
X9.968Y-1.5317
X10.0177Y-2.6364
X10.0982Y-1.5829
X10.0982Y-1.2559
X10.1496Y-1.5829
X10.1498Y-1.2559
X10.1872Y-2.6428
X10.2005Y-1.2559
X10.2008Y-1.5829
X10.2052Y-1.8864
X10.2448Y-2.4969
X10.2452Y-2.6068
X10.2517Y-1.2559
X10.252Y-1.5831
X10.2774Y-1.4806
X10.2989Y-0.3864
X10.3285Y-1.3565
X10.3747Y-1.8928
X10.4323Y-1.7463
X10.4327Y-1.8568
X10.4685Y-0.3928
X10.4864Y-1.1364
X10.5265Y-0.3568
X10.5607Y-0.2823
X10.5802Y-3.3864
X10.656Y-1.1428
X10.7135Y-0.9961
X10.714Y-1.1068
X10.7497Y-3.3928
X10.8073Y-3.248
X10.8077Y-3.3568
T2
X5.101Y-2.9279
X5.101Y-3.0279
X5.201Y-2.9279
X5.201Y-3.0279
X5.301Y-2.9279
X5.301Y-3.0279
T3
X0.0485Y-0.7529
X0.8162Y-3.367
X2.5012Y-1.4615
X5.1272Y-0.7135
X5.5012Y-3.5638
X7.7532Y-1.4615
X10.1863Y-3.3513
X10.9934Y-0.8513
T4
X0.2657Y-2.3311
X1.2032Y-2.3311
X3.0782Y-3.6311
X7.0157Y-3.6311
X9.6407Y-2.3311
X9.8282Y-1.5811
X9.922Y-0.0811
X10.5782Y-2.3311
X10.7657Y-1.5811
X10.8595Y-0.0811
T0
M30
